# xmcd
#
# Track frame offsets: 
#        150
#        12825
#        23475
#        34050
#        47287
#        55162
#        66187
#        77175
#        88275
#        99262
#        111337
#        124650
#        134512
#        147675
#        156150
#        167625
#        177262
#        188887
#        201000
#
# Disc length: 2827 seconds
#
# Revision: 0
# Processed by: cddbd v1.5.2PL0 Copyright (c) Steve Scherf et al.
# Submitted via: ExactAudioCopyFreeDBPlugin 1.0
#
DISCID=020b0913
DTITLE=Bill Clifton - The Early Years, 1957-1958
DYEAR=1992
DGENRE=Country
TTITLE0=The Girl I Left in Sunny Tennessee
TTITLE1=Dixie Darlin'
TTITLE2=You Don't Think About Me When I'm Gone
TTITLE3=I'll Be There Mary Dear
TTITLE4=Paddy On the Turnpike
TTITLE5=I'll Wander Back Someday
TTITLE6=Darlin' Covey
TTITLE7=When You Kneel At Mother's Grave
TTITLE8=Blue Ridge Mountain Blues
TTITLE9=Are You Alone
TTITLE10=Springhill Disaster
TTITLE11=I'm Living the Right Life Now
TTITLE12=Lonely Heart Blues
TTITLE13=Cedar Grove
TTITLE14=You Go To Your Church
TTITLE15=Walking in My Sleep
TTITLE16=Pal of Yesterday
TTITLE17=Just Another Broken Heart
TTITLE18=Little White Washed Chimney
EXTD=
EXTT0=
EXTT1=
EXTT2=
EXTT3=
EXTT4=
EXTT5=
EXTT6=
EXTT7=
EXTT8=
EXTT9=
EXTT10=
EXTT11=
EXTT12=
EXTT13=
EXTT14=
EXTT15=
EXTT16=
EXTT17=
EXTT18=
PLAYORDER=
